<svg clip-rule="evenodd" fill-rule="evenodd" stroke-linejoin="round" stroke-miterlimit="2" viewBox="0 0 85 85" xmlns="http://www.w3.org/2000/svg"><g fill="currentColor" fill-rule="nonzero"><path d="m12.399 53.58h-10.03c-1.28 0-2.34 1.06-2.34 2.36v27.22c0 1.3 1.06 2.36 2.34 2.36h36.01c2.07 0 3.12-2.49 1.68-4l-25.95-27.21c-.45-.45-1.06-.71-1.68-.71z" transform="translate(0 -.490234)"/><path d="m66.128 1.2-36.15 36.53c-.89.9-.92 2.35-.05 3.27l40.24 43.74c.45.49 1.08.75 1.72.75h9.94c1.28 0 2.34-1.06 2.34-2.36v-80.27c0-1.3-1.06-2.36-2.34-2.36h-14.03c-.63 0-1.22.24-1.67.7z" transform="translate(.707041 -.490234)"/><path d="m.029 2.86v28.31c0 1.3 1.06 2.36 2.34 2.36h3.42c.62 0 1.23-.24 1.67-.7l27.87-28.31c1.48-1.49.42-4.03-1.67-4.03h-31.29c-1.28.01-2.34 1.07-2.34 2.37z" transform="translate(0 -.490234)"/></g></svg>