<svg clip-rule="evenodd" fill-rule="evenodd" stroke-linejoin="round" stroke-miterlimit="2" viewBox="0 0 100 100" xmlns="http://www.w3.org/2000/svg"><g fill="currentColor" fill-rule="nonzero" transform="translate(-1)"><path d="m64.309.259c-4.193-1.123-8.467 1.514-9.343 5.765l-3.978 19.292c-2.598 12.601-12.441 22.449-25.041 25.053l-18.924 3.911c-4.251.879-6.887 5.153-5.764 9.346 1.124 4.193 5.545 6.577 9.666 5.211l18.416-6.102c12.244-4.057 25.728-.444 34.304 9.192l12.898 14.494c2.886 3.242 7.905 3.388 10.974.319 3.07-3.07 2.923-8.09-.32-10.975l-14.588-12.976c-9.662-8.595-13.285-22.114-9.216-34.389l6.126-18.477c1.366-4.12-1.017-8.54-5.21-9.664z"/><path d="m14.185 24.391c-3.429-3.102-3.562-8.443-.292-11.713 3.269-3.27 8.61-3.136 11.713.293l9.753 10.78c2.631 2.907 2.519 7.367-.253 10.14-2.773 2.773-7.233 2.884-10.141.253z"/><path d="m90.028 30.351c4.401-1.418 9.093 1.137 10.29 5.604 1.197 4.466-1.589 9.025-6.11 9.997l-14.212 3.057c-3.834.824-7.641-1.502-8.656-5.29-1.014-3.788 1.119-7.706 4.851-8.909z"/><path d="m46.579 93.344c-.972 4.521-5.531 7.307-9.997 6.11-4.467-1.196-7.022-5.889-5.603-10.29l4.459-13.837c1.203-3.732 5.121-5.865 8.908-4.85 3.788 1.015 6.115 4.821 5.29 8.655z"/></g></svg>