<svg width="300" height="300" viewBox="0 0 300 300" fill="none" xmlns="http://www.w3.org/2000/svg">
<path d="M210 110V84C210 63 183.137 41 150 41C116.863 41 90 63 90 84V110" stroke="#DC2C2F" stroke-width="40"/>
<path d="M190 84C190 81.9992 188.32 76.5316 180.443 70.6377C173.038 65.0965 162.241 61 150 61C137.759 61 126.962 65.0965 119.557 70.6377C111.68 76.5316 110 81.9992 110 84V110H70V84C70 65.0009 81.7515 48.9684 95.5908 38.6123C109.901 27.9037 129.104 21 150 21C170.896 21 190.099 27.9037 204.409 38.6123C218.249 48.9684 230 65.0009 230 84V110H190V84Z" fill="#DC2C2F"/>
<path d="M150 41C183.137 41 210 63 210 84V110H190V84C190 81.9992 188.32 76.5316 180.443 70.6377C173.038 65.0965 162.241 61 150 61C137.759 61 126.962 65.0965 119.557 70.6377C111.68 76.5316 110 81.9992 110 84V110H90V84C90 63 116.863 41 150 41Z" fill="#B72F31"/>
<path d="M250 253.658C250 268.232 205.228 274 150 274C94.7715 274 50 268.232 50 253.658V107.658H50.001C50.102 99 70.202 99 150 99C229.798 99 249.898 99 249.999 107.658H250V253.658Z" fill="#DC2C2F"/>
<path d="M150 274C94.7715 274 50 268.232 50 253.658V107.658C50.101 99 70.202 99 150 99V274Z" fill="#B72F31"/>
<path d="M145 254L70 120L110 119L150 187.545L190 119L230 120L155 254L150 256L145 254Z" fill="white"/>
<path d="M110 119L150 187.545V256L145 254L70 120L110 119Z" fill="#D4D4D4"/>
</svg>
